# xmcd
#
# Track frame offsets: 
#        150
#        14521
#        28967
#        43460
#        58506
#        75709
#
# Disc length: 1174 seconds
#
# Revision: 0
# Processed by: cddbd v1.5.2PL0 Copyright (c) Steve Scherf et al.
# Submitted via: ExactAudioCopy v1.0b2
#
DISCID=4e049406
DTITLE=JustMe and Sintax the Terrific - Merciless
DYEAR=2006
DGENRE=Hip-Hop
TTITLE0=Saturation Point
TTITLE1=Razor Burn
TTITLE2=Compound Interest
TTITLE3=Death Is Real
TTITLE4=Rough Crossing
TTITLE5=Merciless
EXTD=
EXTT0=
EXTT1=
EXTT2=
EXTT3=
EXTT4=
EXTT5=
PLAYORDER=
